# xmcd
#
# Track frame offsets:
#	150
#	13279
#	28197
#	38574
#	51577
#	63564
#	75812
#	89941
#	102829
#	116234
#	132704
#	142880
#	153235
#	165376
#	179826
#
# Disc length: 2568 seconds
#
# Revision: 0
# Processed by: cddbd v1.5.2PL0 Copyright (c) Steve Scherf et al.
# Submitted via: EasyCDDAExtractor 16.0.6.1
#
DISCID=d40a060f
DTITLE=Various Artist - 1965 Τα καλύτερα ελληνικά τραγούδια
DYEAR=1965
DGENRE=Λαϊκή
TTITLE0=Μοσχολιού Βίκυ - Πάει-πάει [Γ. Ζαμπέτα-Χ. Βασιλειάδη]
TTITLE1=Διαμάντη Λίτσα - Συννεφιές [Γ. Μητσάκη]
TTITLE2=Μαρινέλλα - Τα παλληκάρια [Γ. Μαρκόπουλου-Α. Δασκαλόπουλου]
TTITLE3=Μοσχολιού Βίκυ - Τα τραίνα που φύγαν [Σ. Ξαρχάκου-Β.Γκούφα-Β.Ανδρεόπου
TTITLE3=λου]
TTITLE4=Μπιθικώτσης Γρηγόρης-Βουγιουκλάκη Αλίκη - Υπομονή [Σ. Ξαρχάκου-Α. Σακε
TTITLE4=λλάριου]
TTITLE5=Μοσχολιού Βίκυ - Τα δειλινά [Γ. Ζαμπέτα-Χ. Βασιλειάδη]
TTITLE6=Ζαμπέτας Γιώργος - Το φανταράκι [Σ. Πιπεράκη-Κ. Φέρρη]
TTITLE7=Μοσχολιού Βίκυ - Ένα αστέρι πέφτει πέφτει [Α. Καλδάρα-Γ. Σαμολαδά]
TTITLE8=Χωματά Καίτη - Κι αν σ' αγαπώ δεν σ' ορίζω [Γ. Σπανού-Γ. Παπαστεφάνου
TTITLE9=Φαραντούρη Μαρία-Παππάς Λάκης - Κάποιος γιορτάζει [Σ. Παππά-Γ. Αργύρη]
TTITLE10=Σαββόπουλος Διονύσης - Συννεφούλα [Δ. Σαββόπουλου-Γ. Αργύρη]
TTITLE11=Λοϊζος Μάνος - Ο δρόμος [Μ. Λοϊζου-Κ. Μητροπούλου]
TTITLE12=Σαββόπουλος Διονύσης - Μη μιλάς άλλο για αγάπη [Δ. Σαββόπουλου]
TTITLE13=Olympians - Συγγνώμη [Α. Κακαλιάγκου-Ν. Ελληναίου]
TTITLE14=Μουζάς-Λιγνός - Άσ' το χεράκι σου [Κ. Καπνίση-Α. Σακελλάριου]
EXTD=
EXTT0=
EXTT1=
EXTT2=
EXTT3=
EXTT4=
EXTT5=
EXTT6=
EXTT7=
EXTT8=
EXTT9=
EXTT10=
EXTT11=
EXTT12=
EXTT13=
EXTT14=
PLAYORDER=
